<svg width="128" height="128" viewBox="0 0 128 128" fill="none" xmlns="http://www.w3.org/2000/svg">
<rect width="128" height="128" fill="#333333"/>
<path d="M86.4102 49.2282L88.1212 35.2397C88.5201 31.9809 88.7193 30.3513 88.3751 28.9968C87.9165 27.1908 86.8007 25.6523 85.274 24.7198C84.1289 24.0204 82.5942 23.8087 79.5255 23.3854C76.4567 22.962 74.9221 22.7503 73.6468 23.1157C71.9457 23.603 70.497 24.7877 69.6192 26.4093C68.9604 27.6254 68.5471 31.0034 68.1486 34.2624L37.6867 30.0599C38.0854 26.801 38.4986 23.423 38.1545 22.0684C37.6957 20.2624 36.5801 18.7239 35.0531 17.7914C33.9078 17.092 32.3734 16.8804 29.3045 16.457C26.2357 16.0336 24.7013 15.8219 23.4258 16.1874C21.7251 16.6746 20.2763 17.8593 19.3982 19.4809C18.7396 20.6971 18.5403 22.3265 18.1416 25.5854L16.4303 39.574C16.0316 42.8329 15.8323 44.4624 16.1764 45.8169C16.6353 47.6229 17.7508 49.1614 19.2779 50.0939C20.4231 50.7933 21.9575 51.005 25.0263 51.4284C28.0951 51.8518 29.6296 52.0635 30.9051 51.698C32.6058 51.2108 34.0546 50.0261 34.9327 48.4045C35.5913 47.1883 36.0046 43.8103 36.4032 40.5514L66.8649 44.7538C66.4664 48.0127 66.0531 51.3908 66.3974 52.7453C66.8559 54.5514 67.9718 56.0896 69.4984 57.0225C70.6441 57.7219 72.1782 57.9332 75.247 58.3568C78.3162 58.7799 79.8504 58.9917 81.1262 58.6262C82.8267 58.1391 84.2754 56.9545 85.1533 55.3326C85.812 54.1167 86.0113 52.4871 86.4102 49.2282Z" fill="white"/>
<path d="M43.768 103.384L40.33 89.7587C39.529 86.5843 39.1286 84.9973 39.301 83.6064C39.5309 81.752 40.4452 80.0699 41.8427 78.9312C42.8908 78.0771 44.3854 77.6521 47.3745 76.8014C50.3637 75.9508 51.8584 75.5258 53.1681 75.709C54.9147 75.9528 56.498 76.9241 57.5706 78.4081C58.3745 79.5208 59.2051 82.8114 60.006 85.9854L89.6772 77.5427C88.8758 74.3683 88.0457 71.0781 88.2181 69.6872C88.4481 67.8328 89.3622 66.1508 90.7597 65.012C91.808 64.1584 93.3024 63.7329 96.2917 62.8823C99.2809 62.0316 100.775 61.6066 102.085 61.7898C103.832 62.0336 105.415 63.0049 106.488 64.4889C107.292 65.6016 107.692 67.189 108.493 70.3634L111.931 83.9886C112.732 87.163 113.133 88.75 112.96 90.1409C112.73 91.9958 111.816 93.6774 110.419 94.8161C109.371 95.6702 107.876 96.0952 104.887 96.9458C101.898 97.7965 100.403 98.222 99.0931 98.0388C97.3469 97.7945 95.7631 96.8237 94.691 95.3397C93.8866 94.2265 93.0565 90.9364 92.2556 87.7619L62.5844 96.2046C63.3853 99.379 64.2154 102.669 64.043 104.06C63.813 105.915 62.8989 107.597 61.5014 108.735C60.4531 109.589 58.9587 110.014 55.9694 110.865C52.9804 111.716 51.4858 112.141 50.1759 111.958C48.4295 111.714 46.8459 110.743 45.7736 109.259C44.9694 108.146 44.5689 106.559 43.768 103.384Z" fill="white"/>
</svg>
