<svg version="1.1" xmlns="http://www.w3.org/2000/svg" xmlns:xlink="http://www.w3.org/1999/xlink" width="132" height="132"><defs><style xmlns="http://www.w3.org/1999/xhtml" type="text/css">@font-face {
  font-family: 'Inter';
  font-style: normal;
  font-weight: 100;
  src: url('https://frame0.app/fonts/Inter-Thin.ttf') format('truetype');
}
@font-face {
  font-family: 'Inter';
  font-style: italic;
  font-weight: 100;
  src: url('https://frame0.app/fonts/Inter-ThinItalic.ttf') format('truetype');
}
@font-face {
  font-family: 'Inter';
  font-style: normal;
  font-weight: 200;
  src: url('https://frame0.app/fonts/Inter-ExtraLight.ttf') format('truetype');
}
@font-face {
  font-family: 'Inter';
  font-style: italic;
  font-weight: 200;
  src: url('https://frame0.app/fonts/Inter-ExtraLightItalic.ttf') format('truetype');
}
@font-face {
  font-family: 'Inter';
  font-style: normal;
  font-weight: 300;
  src: url('https://frame0.app/fonts/Inter-Light.ttf') format('truetype');
}
@font-face {
  font-family: 'Inter';
  font-style: italic;
  font-weight: 300;
  src: url('https://frame0.app/fonts/Inter-LightItalic.ttf') format('truetype');
}
@font-face {
  font-family: 'Inter';
  font-style: normal;
  font-weight: 400;
  src: url('https://frame0.app/fonts/Inter-Regular.ttf') format('truetype');
}
@font-face {
  font-family: 'Inter';
  font-style: italic;
  font-weight: 400;
  src: url('https://frame0.app/fonts/Inter-Italic.ttf') format('truetype');
}
@font-face {
  font-family: 'Inter';
  font-style: normal;
  font-weight: 500;
  src: url('https://frame0.app/fonts/Inter-Medium.ttf') format('truetype');
}
@font-face {
  font-family: 'Inter';
  font-style: italic;
  font-weight: 500;
  src: url('https://frame0.app/fonts/Inter-MediumItalic.ttf') format('truetype');
}
@font-face {
  font-family: 'Inter';
  font-style: normal;
  font-weight: 600;
  src: url('https://frame0.app/fonts/Inter-SemiBold.ttf') format('truetype');
}
@font-face {
  font-family: 'Inter';
  font-style: italic;
  font-weight: 600;
  src: url('https://frame0.app/fonts/Inter-SemiBoldItalic.ttf') format('truetype');
}
@font-face {
  font-family: 'Inter';
  font-style: normal;
  font-weight: 700;
  src: url('https://frame0.app/fonts/Inter-Bold.ttf') format('truetype');
}
@font-face {
  font-family: 'Inter';
  font-style: italic;
  font-weight: 700;
  src: url('https://frame0.app/fonts/Inter-BoldItalic.ttf') format('truetype');
}
@font-face {
  font-family: 'Inter';
  font-style: normal;
  font-weight: 800;
  src: url('https://frame0.app/fonts/Inter-ExtraBold.ttf') format('truetype');
}
@font-face {
  font-family: 'Inter';
  font-style: italic;
  font-weight: 800;
  src: url('https://frame0.app/fonts/Inter-ExtraBoldItalic.ttf') format('truetype');
}
@font-face {
  font-family: 'Source Serif Pro';
  font-style: normal;
  font-weight: 400;
  src: url('https://frame0.app/fonts/SourceSerifPro-Regular.ttf') format('truetype');
}
@font-face {
  font-family: 'Source Serif Pro';
  font-style: italic;
  font-weight: 400;
  src: url('https://frame0.app/fonts/SourceSerifPro-Italic.ttf') format('truetype');
}
@font-face {
  font-family: 'Source Serif Pro';
  font-style: normal;
  font-weight: 700;
  src: url('https://frame0.app/fonts/SourceSerifPro-Bold.ttf') format('truetype');
}
@font-face {
  font-family: 'Source Serif Pro';
  font-style: italic;
  font-weight: 700;
  src: url('https://frame0.app/fonts/SourceSerifPro-BoldItalic.ttf') format('truetype');
}
@font-face {
  font-family: 'IBM Plex Mono';
  font-style: normal;
  font-weight: 400;
  src: url('https://frame0.app/fonts/IBMPlexMono-Regular.ttf') format('truetype');
}
@font-face {
  font-family: 'IBM Plex Mono';
  font-style: italic;
  font-weight: 400;
  src: url('https://frame0.app/fonts/IBMPlexMono-Italic.ttf') format('truetype');
}
@font-face {
  font-family: 'IBM Plex Mono';
  font-style: normal;
  font-weight: 700;
  src: url('https://frame0.app/fonts/IBMPlexMono-Bold.ttf') format('truetype');
}
@font-face {
  font-family: 'IBM Plex Mono';
  font-style: italic;
  font-weight: 700;
  src: url('https://frame0.app/fonts/IBMPlexMono-BoldItalic.ttf') format('truetype');
}
@font-face {
  font-family: 'Loranthus';
  font-style: normal;
  font-weight: 400;
  src: url('https://frame0.app/fonts/Loranthus-Regular.ttf') format('truetype');
}
@font-face {
  font-family: 'Loranthus';
  font-style: normal;
  font-weight: 700;
  src: url('https://frame0.app/fonts/Loranthus-Bold.ttf') format('truetype');
}
@font-face {
  font-family: 'Loranthus';
  font-style: italic;
  font-weight: 400;
  src: url('https://frame0.app/fonts/Loranthus-Italic.ttf') format('truetype');
}
@font-face {
  font-family: 'Loranthus';
  font-style: italic;
  font-weight: 700;
  src: url('https://frame0.app/fonts/Loranthus-BoldItalic.ttf') format('truetype');
}
@font-face {
  font-family: 'Redacted Script';
  font-style: normal;
  font-weight: 400;
  src: url('https://frame0.app/fonts/RedactedScript-Regular.ttf') format('truetype');
}
@font-face {
  font-family: 'Redacted Script';
  font-style: normal;
  font-weight: 700;
  src: url('https://frame0.app/fonts/RedactedScript-Bold.ttf') format('truetype');
}
@font-face {
  font-family: 'Jojoba';
  font-style: normal;
  font-weight: 400;
  src: url('https://frame0.app/fonts/Jojoba.ttf') format('truetype');
}</style></defs><g><g><g><g><path fill="none" stroke="#000000" paint-order="fill stroke markers" d=" M 2.5 2.5 C 39.392442720383414 3.962999697700143 75.94200121313335 4.878188963904977 129.5 2.5 M 2.5 2.5 C 43.737925534695385 1.3289599388092754 85.55116221606731 1.9913184612244366 129.5 2.5 M 129.5 2.5 C 128.01172406971455 1.9325691908597946 131.04741199314594 1.6243211477994919 129.5 2.5 M 129.5 2.5 C 127.32204424366356 3.397685883194208 129.69526766762138 2.8655837513506413 129.5 2.5 M 129.5 2.5 C 128.63210197784008 48.72718133851886 130.53025957442821 97.03792640715838 129.5 129.5 M 129.5 2.5 C 128.29485075108707 30.86846201643348 129.12236420743167 61.12709810137749 129.5 129.5 M 129.5 129.5 C 127.9709873944521 130.53251759707928 130.15692861378193 128.10111586749554 129.5 129.5 M 129.5 129.5 C 127.73364585861563 131.4192412354052 129.19367424473165 127.24946744218468 129.5 129.5 M 129.5 129.5 C 99.95249822214245 128.34895883582533 75.46150434464215 129.94404922507704 2.5 129.5 M 129.5 129.5 C 101.45367014184595 128.51902976997195 74.71025486588478 129.29675999648867 2.5 129.5 M 2.5 129.5 C 0.7778611928224564 128.13763873279095 3.959270551800728 129.94880597293377 2.5 129.5 M 2.5 129.5 C 2.8600874088704584 127.87931358590723 2.5461053274571896 128.65026168599724 2.5 129.5 M 2.5 129.5 C 0.493433089479804 88.87783671095967 1.1545606567710638 49.406016288697714 2.5 2.5 M 2.5 129.5 C 4.511829111054539 96.04725074246525 3.0220665664225814 62.710631993412974 2.5 2.5 M 2.5 2.5 C 3.65158374607563 2.5990068167448044 1.6580510884523392 0.7840906828641891 2.5 2.5 M 2.5 2.5 C 1.7425554178655147 0.6925757862627508 4.525778689235449 2.0631080843508247 2.5 2.5 M 2.5 2.5 C 2.5 2.5 2.5 2.5 2.5 2.5 M 2.5 2.5 C 2.5 2.5 2.5 2.5 2.5 2.5" stroke-linecap="round" stroke-linejoin="round" stroke-miterlimit="10" stroke-width="2"/></g></g><g><g><path fill="none" stroke="#000000" paint-order="fill stroke markers" d=" M 66 66 C 65.88779557138682 57.16909668892622 66.7185047903657 46.6402610823512 66 34 M 66 66 C 65.96227750644087 55.557772145420316 66.173374389261 44.99001115337014 66 34 M 66 34 C 65.96894889324903 30.922887024839596 67.81907336171456 29.83887965232134 70 30 M 66 34 C 66.64365178383886 30.80611868668087 67.3946221018184 29.952113204821945 70 30 M 70 30 C 77.57734502778948 28.951691727986486 85.806966742903 30.068648677220494 95.188 30 M 70 30 C 76.64336581577956 30.362209748073667 82.83279288287163 30.523196529193967 95.188 30 M 95.188 30 C 98.59386663855543 30.456878052598718 100.85745662860313 32.57904713048533 98.6515602410184 36.000309814243806 M 95.188 30 C 98.55232570180227 30.03432004111159 99.05968413352707 33.902937313978825 98.6515602410184 36.000309814243806 M 98.6515602410184 36.000309814243806 C 98.64384005637261 37.28843727261975 98.79290985329001 36.553050102561976 97.792 37.036 M 98.6515602410184 36.000309814243806 C 99.50967192807587 36.25871626102582 97.82995920231491 36.26217688311663 97.792 37.036 M 97.792 37.036 C 91.55396044149175 41.64818053212226 85.74319033963457 45.76918052692176 79.00800000000001 53.136 M 97.792 37.036 C 92.82041665439233 41.60026625986397 87.79292499801741 46.17498428288103 79.00800000000001 53.136" stroke-linecap="round" stroke-linejoin="round" stroke-miterlimit="10" stroke-width="2"/></g><g><path fill="none" stroke="#000000" paint-order="fill stroke markers" d=" M 66 102 C 56.893709439339936 93.77036250340969 48.740925888713896 83.95157906340987 36.344 72.344 M 66 102 C 56.30962167883486 92.40080853319495 46.85898689402312 82.59670747602908 36.344 72.344 M 36.344 72.344 C 34.81255389490617 69.97608417323848 34.02866546017701 68.6484381600952 34 66.688 M 36.344 72.344 C 35.48725678549601 69.85931583507976 33.60421420028085 68.7616717125958 34 66.688 M 34 66.688 C 34.05689920138523 58.93566909880936 34.825375449172704 53.23131201669574 34 43.66 M 34 66.688 C 34.35274641971305 61.13807042221129 34.21098762016013 55.51080294983387 34 43.66 M 34 43.66 C 34.342098681849585 41.0312814024846 38.03109475893485 37.90832647402165 40.02928743453403 40.21908660102918 M 34 43.66 C 34.30055774509643 40.608723390997476 36.23332226385879 39.232216657515146 40.02928743453403 40.21908660102918 M 40.02928743453403 40.21908660102918 C 40.53847336818963 41.28583298877607 41.2465307138916 40.40618824817709 40.828 40.831999999999994 M 40.02928743453403 40.21908660102918 C 41.40430523989289 40.25611197718214 40.28358006291649 40.11531502873174 40.828 40.831999999999994 M 40.828 40.831999999999994 C 57.58059668391482 58.06026802444354 74.56653096617893 74.51782783025101 98 98.036 M 40.828 40.831999999999994 C 56.11456582738981 56.111228505232184 71.38294292784855 71.66916562063024 98 98.036" stroke-linecap="round" stroke-linejoin="round" stroke-miterlimit="10" stroke-width="2"/></g><g><path fill="none" stroke="#000000" paint-order="fill stroke markers" d=" M 66.856 31.524 C 76.52381565282315 50.64430026503176 87.54971075842946 67.94320878399581 100.512 91.388 M 66.856 31.524 C 78.13887551693588 50.920382342913456 89.3148780177024 70.2813142937866 100.512 91.388 M 100.512 91.388 C 101.36113251429116 92.08719954319653 101.14714779048523 94.75587700976256 99.844 96.18400000000001 M 100.512 91.388 C 102.03583540488098 91.97043120503781 100.72269653058908 94.86911056226316 99.844 96.18400000000001 M 99.844 96.18400000000001 C 98.51035350272703 97.27684976780496 97.37975302686226 99.02306636007624 95.172 100.83600000000001 M 99.844 96.18400000000001 C 98.76437534643495 97.40889965294693 97.54330302900728 98.63128340568578 95.172 100.83600000000001 M 95.172 100.83600000000001 C 94.74836815724758 102.03888799635331 94.07230420618285 101.24610355313716 92.348 102.00000000000001 M 95.172 100.83600000000001 C 94.70682722049443 101.61632998486618 92.27453171110679 102.56999373663065 92.348 102.00000000000001 M 92.348 102.00000000000001 C 76.40787438530921 103.10368845576347 60.729683460795876 101.89579341525139 43.403999999999996 102.00000000000001 M 92.348 102.00000000000001 C 79.33805550003648 101.89274596515955 66.98874060408473 101.80618559662165 43.403999999999996 102.00000000000001 M 43.403999999999996 102.00000000000001 C 41.633467774536335 101.67248221742595 41.4301165534459 102.39782299379945 40.903999999999996 101.12400000000001 M 43.403999999999996 102.00000000000001 C 42.63883494220289 102.45103264967585 41.738031688546386 102.76930942925752 40.903999999999996 101.12400000000001 M 40.903999999999996 101.12400000000001 C 38.236986756467864 99.40156899628009 34.97357961835181 97.116964263148 31 93.2 M 40.903999999999996 101.12400000000001 C 37.593503018294044 98.37322364376568 33.976041755048264 95.65716437870164 31 93.2 M 31 93.2 C 27.840889045444705 91.78710004280504 29.034720467143686 87.51151284567139 32.04149142125864 86.35052588720549 M 31 93.2 C 29.585039393824914 90.56856670382615 29.91191461730841 86.35033544703445 32.04149142125864 86.35052588720549 M 32.04149142125864 86.35052588720549 C 32.919552696765564 86.68080400216955 33.42530350920818 86.2997204850568 33.524 86.07600000000001 M 32.04149142125864 86.35052588720549 C 32.756058153406876 85.13570153515417 34.08411820952854 86.54411964930132 33.524 86.07600000000001 M 33.524 86.07600000000001 C 37.20849250283566 86.27888616575844 41.02885735607686 85.78608828154914 50.184 86.18400000000001 M 33.524 86.07600000000001 C 39.10370099588123 85.80162688503071 44.53519003152398 85.87484852799625 50.184 86.18400000000001" stroke-linecap="round" stroke-linejoin="round" stroke-miterlimit="10" stroke-width="2"/></g></g></g></g></svg>