<svg width="97" height="96" viewBox="0 0 97 96" fill="none" xmlns="http://www.w3.org/2000/svg">
<path d="M70.4102 33.2282L72.1212 19.2397C72.5201 15.9809 72.7193 14.3513 72.3751 12.9968C71.9165 11.1908 70.8007 9.65232 69.274 8.71979C68.1289 8.02038 66.5942 7.80869 63.5255 7.38535C60.4567 6.96196 58.9221 6.75027 57.6468 7.11568C55.9457 7.60295 54.497 8.78766 53.6192 10.4093C52.9604 11.6254 52.5471 15.0034 52.1486 18.2624L21.6867 14.0599C22.0854 10.801 22.4986 7.42298 22.1545 6.06845C21.6957 4.26245 20.5801 2.72395 19.0531 1.79142C17.9078 1.09202 16.3734 0.88037 13.3045 0.456983C10.2357 0.0335951 8.70129 -0.178098 7.42579 0.187366C5.72507 0.674587 4.27634 1.85929 3.39819 3.48088C2.73962 4.69707 2.54025 6.32654 2.14161 9.58543L0.430318 23.574C0.0316317 26.8329 -0.167686 28.4624 0.176402 29.8169C0.635251 31.6229 1.75083 33.1614 3.27786 34.0939C4.4231 34.7933 5.95748 35.005 9.0263 35.4284C12.0951 35.8518 13.6296 36.0635 14.9051 35.698C16.6058 35.2108 18.0546 34.0261 18.9327 32.4045C19.5913 31.1883 20.0046 27.8103 20.4032 24.5514L50.8649 28.7538C50.4664 32.0127 50.0531 35.3908 50.3974 36.7453C50.8559 38.5514 51.9718 40.0896 53.4984 41.0225C54.6441 41.7219 56.1782 41.9332 59.247 42.3568C62.3162 42.7799 63.8504 42.9917 65.1262 42.6262C66.8267 42.1391 68.2754 40.9545 69.1533 39.3326C69.812 38.1167 70.0113 36.4871 70.4102 33.2282Z" fill="white"/>
<path d="M27.768 87.3843L24.33 73.7587C23.529 70.5843 23.1286 68.9973 23.301 67.6064C23.5309 65.752 24.4452 64.0699 25.8427 62.9312C26.8908 62.0771 28.3854 61.6521 31.3745 60.8014C34.3637 59.9508 35.8584 59.5258 37.1681 59.709C38.9147 59.9528 40.498 60.9241 41.5706 62.4081C42.3745 63.5208 43.2051 66.8114 44.006 69.9854L73.6772 61.5427C72.8758 58.3683 72.0457 55.0781 72.2181 53.6872C72.4481 51.8328 73.3622 50.1508 74.7597 49.012C75.808 48.1584 77.3024 47.7329 80.2917 46.8823C83.2809 46.0316 84.7753 45.6066 86.0854 45.7898C87.8317 46.0336 89.4155 47.0049 90.4876 48.4889C91.2919 49.6016 91.6924 51.189 92.4932 54.3634L95.9311 67.9886C96.7324 71.163 97.1329 72.75 96.9605 74.1409C96.7305 75.9958 95.8163 77.6774 94.4188 78.8161C93.3706 79.6702 91.8762 80.0952 88.8869 80.9458C85.8976 81.7965 84.4027 82.222 83.0931 82.0388C81.3469 81.7945 79.7631 80.8237 78.691 79.3397C77.8866 78.2265 77.0565 74.9364 76.2556 71.7619L46.5844 80.2046C47.3853 83.379 48.2154 86.6692 48.043 88.0601C47.813 89.915 46.8989 91.5965 45.5014 92.7353C44.4531 93.5894 42.9587 94.0144 39.9694 94.865C36.9804 95.7157 35.4858 96.1412 34.1759 95.958C32.4295 95.7137 30.8459 94.7429 29.7736 93.2589C28.9694 92.1457 28.5689 90.5588 27.768 87.3843Z" fill="white"/>
</svg>
