<svg version="1.1" xmlns="http://www.w3.org/2000/svg" xmlns:xlink="http://www.w3.org/1999/xlink" width="748.82861328125" height="384"><defs/><g><g><rect fill="#A3E0FF" stroke="none" x="32" y="32" width="321.0908203125" height="106" transform="matrix(1 0 0 1 -22 -22)"/></g><g><path fill="none" stroke="#000000" paint-order="fill stroke markers" d=" M 10 10 L 331.0908203125 10 L 331.0908203125 116 L 10 116 L 10 10 Z Z" stroke-miterlimit="10" stroke-dasharray=""/></g><g><path fill="none" stroke="#000000" paint-order="fill stroke markers" d=" M 10 33 L 331.0908203125 33" stroke-miterlimit="10" stroke-dasharray=""/></g><g><path fill="none" stroke="#000000" paint-order="fill stroke markers" d=" M 38.05908203125 33 L 38.05908203125 116" stroke-miterlimit="10" stroke-dasharray=""/></g><g><path fill="none" stroke="#000000" paint-order="fill stroke markers" d=" M 126.80810546875 33 L 126.80810546875 116" stroke-miterlimit="10" stroke-dasharray=""/></g><g><g><path fill="none" stroke="none"/><text fill="#000000" stroke="none" font-family="Arial" font-size="13px" font-style="normal" font-weight="bold" text-decoration="undefined" x="192.54541015625" y="43.5" text-anchor="middle" dominant-baseline="central" transform="matrix(1 0 0 1 -22 -22)">Member</text></g></g><g><g><path fill="none" stroke="none"/><text fill="#000000" stroke="none" font-family="Arial" font-size="13px" font-style="normal" font-weight="normal" text-decoration="undefined" x="37" y="60" text-anchor="start" dominant-baseline="text-before-edge" transform="matrix(1 0 0 1 -22 -22)">PK</text></g></g><g><g><path fill="none" stroke="none"/><text fill="#000000" stroke="none" font-family="Arial" font-size="13px" font-style="normal" font-weight="normal" text-decoration="undefined" x="65.05908203125" y="60" text-anchor="start" dominant-baseline="text-before-edge" transform="matrix(1 0 0 1 -22 -22)">id</text></g></g><g><g><path fill="none" stroke="none"/><text fill="#000000" stroke="none" font-family="Arial" font-size="13px" font-style="normal" font-weight="normal" text-decoration="undefined" x="153.80810546875" y="60" text-anchor="start" dominant-baseline="text-before-edge" transform="matrix(1 0 0 1 -22 -22)">Long</text></g></g><g><g><path fill="none" stroke="none"/><text fill="#000000" stroke="none" font-family="Arial" font-size="13px" font-style="normal" font-weight="normal" text-decoration="undefined" x="37" y="66.5" text-anchor="start" dominant-baseline="central" transform="matrix(1 0 0 1 -22 -22)"></text></g></g><g><g><path fill="none" stroke="none"/><text fill="#000000" stroke="none" font-family="Arial" font-size="13px" font-style="normal" font-weight="normal" text-decoration="undefined" x="37" y="75" text-anchor="start" dominant-baseline="text-before-edge" transform="matrix(1 0 0 1 -22 -22)">U</text></g></g><g><g><path fill="none" stroke="none"/><text fill="#000000" stroke="none" font-family="Arial" font-size="13px" font-style="normal" font-weight="normal" text-decoration="undefined" x="65.05908203125" y="75" text-anchor="start" dominant-baseline="text-before-edge" transform="matrix(1 0 0 1 -22 -22)">email</text></g></g><g><g><path fill="none" stroke="none"/><text fill="#000000" stroke="none" font-family="Arial" font-size="13px" font-style="normal" font-weight="normal" text-decoration="undefined" x="153.80810546875" y="75" text-anchor="start" dominant-baseline="text-before-edge" transform="matrix(1 0 0 1 -22 -22)">String</text></g></g><g><g><path fill="none" stroke="none"/><text fill="#000000" stroke="none" font-family="Arial" font-size="13px" font-style="normal" font-weight="normal" text-decoration="undefined" x="37" y="81.5" text-anchor="start" dominant-baseline="central" transform="matrix(1 0 0 1 -22 -22)"></text></g></g><g><g><path fill="none" stroke="none"/><text fill="#000000" stroke="none" font-family="Arial" font-size="13px" font-style="normal" font-weight="normal" text-decoration="undefined" x="37" y="90" text-anchor="start" dominant-baseline="text-before-edge" transform="matrix(1 0 0 1 -22 -22)"></text></g></g><g><g><path fill="none" stroke="none"/><text fill="#000000" stroke="none" font-family="Arial" font-size="13px" font-style="normal" font-weight="normal" text-decoration="undefined" x="65.05908203125" y="90" text-anchor="start" dominant-baseline="text-before-edge" transform="matrix(1 0 0 1 -22 -22)">password</text></g></g><g><g><path fill="none" stroke="none"/><text fill="#000000" stroke="none" font-family="Arial" font-size="13px" font-style="normal" font-weight="normal" text-decoration="undefined" x="153.80810546875" y="90" text-anchor="start" dominant-baseline="text-before-edge" transform="matrix(1 0 0 1 -22 -22)">String</text></g></g><g><g><path fill="none" stroke="none"/><text fill="#000000" stroke="none" font-family="Arial" font-size="13px" font-style="normal" font-weight="normal" text-decoration="undefined" x="37" y="96.5" text-anchor="start" dominant-baseline="central" transform="matrix(1 0 0 1 -22 -22)"></text></g></g><g><g><path fill="none" stroke="none"/><text fill="#000000" stroke="none" font-family="Arial" font-size="13px" font-style="normal" font-weight="normal" text-decoration="undefined" x="37" y="105" text-anchor="start" dominant-baseline="text-before-edge" transform="matrix(1 0 0 1 -22 -22)"></text></g></g><g><g><path fill="none" stroke="none"/><text fill="#000000" stroke="none" font-family="Arial" font-size="13px" font-style="normal" font-weight="normal" text-decoration="undefined" x="65.05908203125" y="105" text-anchor="start" dominant-baseline="text-before-edge" transform="matrix(1 0 0 1 -22 -22)">pseudo</text></g></g><g><g><path fill="none" stroke="none"/><text fill="#000000" stroke="none" font-family="Arial" font-size="13px" font-style="normal" font-weight="normal" text-decoration="undefined" x="153.80810546875" y="105" text-anchor="start" dominant-baseline="text-before-edge" transform="matrix(1 0 0 1 -22 -22)">String</text></g></g><g><g><path fill="none" stroke="none"/><text fill="#000000" stroke="none" font-family="Arial" font-size="13px" font-style="normal" font-weight="normal" text-decoration="undefined" x="37" y="111.5" text-anchor="start" dominant-baseline="central" transform="matrix(1 0 0 1 -22 -22)"></text></g></g><g><g><path fill="none" stroke="none"/><text fill="#000000" stroke="none" font-family="Arial" font-size="13px" font-style="normal" font-weight="normal" text-decoration="undefined" x="37" y="120" text-anchor="start" dominant-baseline="text-before-edge" transform="matrix(1 0 0 1 -22 -22)"></text></g></g><g><g><path fill="none" stroke="none"/><text fill="#000000" stroke="none" font-family="Arial" font-size="13px" font-style="normal" font-weight="normal" text-decoration="undefined" x="65.05908203125" y="120" text-anchor="start" dominant-baseline="text-before-edge" transform="matrix(1 0 0 1 -22 -22)">memberRole</text></g></g><g><g><path fill="none" stroke="none"/><text fill="#000000" stroke="none" font-family="Arial" font-size="13px" font-style="normal" font-weight="normal" text-decoration="undefined" x="153.80810546875" y="120" text-anchor="start" dominant-baseline="text-before-edge" transform="matrix(1 0 0 1 -22 -22)">MemberRole(ADMIN, MEMBER)</text></g></g><g><g><path fill="none" stroke="none"/><text fill="#000000" stroke="none" font-family="Arial" font-size="13px" font-style="normal" font-weight="normal" text-decoration="undefined" x="37" y="126.5" text-anchor="start" dominant-baseline="central" transform="matrix(1 0 0 1 -22 -22)"></text></g></g><g><rect fill="#FFFF91" stroke="none" x="32" y="305" width="296.81103515625" height="91" transform="matrix(1 0 0 1 -22 -22)"/></g><g><path fill="none" stroke="#000000" paint-order="fill stroke markers" d=" M 10 283 L 306.81103515625 283 L 306.81103515625 374 L 10 374 L 10 283 Z Z" stroke-miterlimit="10" stroke-dasharray=""/></g><g><path fill="none" stroke="#000000" paint-order="fill stroke markers" d=" M 10 306 L 306.81103515625 306" stroke-miterlimit="10" stroke-dasharray=""/></g><g><path fill="none" stroke="#000000" paint-order="fill stroke markers" d=" M 38.05908203125 306 L 38.05908203125 374" stroke-miterlimit="10" stroke-dasharray=""/></g><g><path fill="none" stroke="#000000" paint-order="fill stroke markers" d=" M 121.0380859375 306 L 121.0380859375 374" stroke-miterlimit="10" stroke-dasharray=""/></g><g><g><path fill="none" stroke="none"/><text fill="#000000" stroke="none" font-family="Arial" font-size="13px" font-style="normal" font-weight="bold" text-decoration="undefined" x="180.405517578125" y="316.5" text-anchor="middle" dominant-baseline="central" transform="matrix(1 0 0 1 -22 -22)">Preset</text></g></g><g><g><path fill="none" stroke="none"/><text fill="#000000" stroke="none" font-family="Arial" font-size="13px" font-style="normal" font-weight="normal" text-decoration="undefined" x="37" y="333" text-anchor="start" dominant-baseline="text-before-edge" transform="matrix(1 0 0 1 -22 -22)">PK</text></g></g><g><g><path fill="none" stroke="none"/><text fill="#000000" stroke="none" font-family="Arial" font-size="13px" font-style="normal" font-weight="normal" text-decoration="undefined" x="65.05908203125" y="333" text-anchor="start" dominant-baseline="text-before-edge" transform="matrix(1 0 0 1 -22 -22)">id</text></g></g><g><g><path fill="none" stroke="none"/><text fill="#000000" stroke="none" font-family="Arial" font-size="13px" font-style="normal" font-weight="normal" text-decoration="undefined" x="148.0380859375" y="333" text-anchor="start" dominant-baseline="text-before-edge" transform="matrix(1 0 0 1 -22 -22)">Long</text></g></g><g><g><path fill="none" stroke="none"/><text fill="#000000" stroke="none" font-family="Arial" font-size="13px" font-style="normal" font-weight="normal" text-decoration="undefined" x="37" y="339.5" text-anchor="start" dominant-baseline="central" transform="matrix(1 0 0 1 -22 -22)"></text></g></g><g><g><path fill="none" stroke="none"/><text fill="#000000" stroke="none" font-family="Arial" font-size="13px" font-style="normal" font-weight="normal" text-decoration="undefined" x="37" y="348" text-anchor="start" dominant-baseline="text-before-edge" transform="matrix(1 0 0 1 -22 -22)"></text></g></g><g><g><path fill="none" stroke="none"/><text fill="#000000" stroke="none" font-family="Arial" font-size="13px" font-style="normal" font-weight="normal" text-decoration="undefined" x="65.05908203125" y="348" text-anchor="start" dominant-baseline="text-before-edge" transform="matrix(1 0 0 1 -22 -22)">name</text></g></g><g><g><path fill="none" stroke="none"/><text fill="#000000" stroke="none" font-family="Arial" font-size="13px" font-style="normal" font-weight="normal" text-decoration="undefined" x="148.0380859375" y="348" text-anchor="start" dominant-baseline="text-before-edge" transform="matrix(1 0 0 1 -22 -22)">String</text></g></g><g><g><path fill="none" stroke="none"/><text fill="#000000" stroke="none" font-family="Arial" font-size="13px" font-style="normal" font-weight="normal" text-decoration="undefined" x="37" y="354.5" text-anchor="start" dominant-baseline="central" transform="matrix(1 0 0 1 -22 -22)"></text></g></g><g><g><path fill="none" stroke="none"/><text fill="#000000" stroke="none" font-family="Arial" font-size="13px" font-style="normal" font-weight="normal" text-decoration="undefined" x="37" y="363" text-anchor="start" dominant-baseline="text-before-edge" transform="matrix(1 0 0 1 -22 -22)"></text></g></g><g><g><path fill="none" stroke="none"/><text fill="#000000" stroke="none" font-family="Arial" font-size="13px" font-style="normal" font-weight="normal" text-decoration="undefined" x="65.05908203125" y="363" text-anchor="start" dominant-baseline="text-before-edge" transform="matrix(1 0 0 1 -22 -22)">preset_type</text></g></g><g><g><path fill="none" stroke="none"/><text fill="#000000" stroke="none" font-family="Arial" font-size="13px" font-style="normal" font-weight="normal" text-decoration="undefined" x="148.0380859375" y="363" text-anchor="start" dominant-baseline="text-before-edge" transform="matrix(1 0 0 1 -22 -22)">PresetType(AD, FREE PAID) </text></g></g><g><g><path fill="none" stroke="none"/><text fill="#000000" stroke="none" font-family="Arial" font-size="13px" font-style="normal" font-weight="normal" text-decoration="undefined" x="37" y="369.5" text-anchor="start" dominant-baseline="central" transform="matrix(1 0 0 1 -22 -22)"></text></g></g><g><g><path fill="none" stroke="none"/><text fill="#000000" stroke="none" font-family="Arial" font-size="13px" font-style="normal" font-weight="normal" text-decoration="undefined" x="37" y="378" text-anchor="start" dominant-baseline="text-before-edge" transform="matrix(1 0 0 1 -22 -22)">FK</text></g></g><g><g><path fill="none" stroke="none"/><text fill="#000000" stroke="none" font-family="Arial" font-size="13px" font-style="normal" font-weight="normal" text-decoration="undefined" x="65.05908203125" y="378" text-anchor="start" dominant-baseline="text-before-edge" transform="matrix(1 0 0 1 -22 -22)">member_id</text></g></g><g><g><path fill="none" stroke="none"/><text fill="#000000" stroke="none" font-family="Arial" font-size="13px" font-style="normal" font-weight="normal" text-decoration="undefined" x="148.0380859375" y="378" text-anchor="start" dominant-baseline="text-before-edge" transform="matrix(1 0 0 1 -22 -22)">Long</text></g></g><g><g><path fill="none" stroke="none"/><text fill="#000000" stroke="none" font-family="Arial" font-size="13px" font-style="normal" font-weight="normal" text-decoration="undefined" x="37" y="384.5" text-anchor="start" dominant-baseline="central" transform="matrix(1 0 0 1 -22 -22)"></text></g></g><g><rect fill="#FFD6AD" stroke="none" x="432" y="32" width="328.82861328125" height="106" transform="matrix(1 0 0 1 -22 -22)"/></g><g><path fill="none" stroke="#000000" paint-order="fill stroke markers" d=" M 410 10 L 738.82861328125 10 L 738.82861328125 116 L 410 116 L 410 10 Z Z" stroke-miterlimit="10" stroke-dasharray=""/></g><g><path fill="none" stroke="#000000" paint-order="fill stroke markers" d=" M 410 33 L 738.82861328125 33" stroke-miterlimit="10" stroke-dasharray=""/></g><g><path fill="none" stroke="#000000" paint-order="fill stroke markers" d=" M 438.05908203125 33 L 438.05908203125 116" stroke-miterlimit="10" stroke-dasharray=""/></g><g><path fill="none" stroke="#000000" paint-order="fill stroke markers" d=" M 518.12451171875 33 L 518.12451171875 116" stroke-miterlimit="10" stroke-dasharray=""/></g><g><g><path fill="none" stroke="none"/><text fill="#000000" stroke="none" font-family="Arial" font-size="13px" font-style="normal" font-weight="bold" text-decoration="undefined" x="596.414306640625" y="43.5" text-anchor="middle" dominant-baseline="central" transform="matrix(1 0 0 1 -22 -22)">Exercise</text></g></g><g><g><path fill="none" stroke="none"/><text fill="#000000" stroke="none" font-family="Arial" font-size="13px" font-style="normal" font-weight="normal" text-decoration="undefined" x="437" y="60" text-anchor="start" dominant-baseline="text-before-edge" transform="matrix(1 0 0 1 -22 -22)">PK</text></g></g><g><g><path fill="none" stroke="none"/><text fill="#000000" stroke="none" font-family="Arial" font-size="13px" font-style="normal" font-weight="normal" text-decoration="undefined" x="465.05908203125" y="60" text-anchor="start" dominant-baseline="text-before-edge" transform="matrix(1 0 0 1 -22 -22)">id</text></g></g><g><g><path fill="none" stroke="none"/><text fill="#000000" stroke="none" font-family="Arial" font-size="13px" font-style="normal" font-weight="normal" text-decoration="undefined" x="545.12451171875" y="60" text-anchor="start" dominant-baseline="text-before-edge" transform="matrix(1 0 0 1 -22 -22)">Long</text></g></g><g><g><path fill="none" stroke="none"/><text fill="#000000" stroke="none" font-family="Arial" font-size="13px" font-style="normal" font-weight="normal" text-decoration="undefined" x="437" y="66.5" text-anchor="start" dominant-baseline="central" transform="matrix(1 0 0 1 -22 -22)"></text></g></g><g><g><path fill="none" stroke="none"/><text fill="#000000" stroke="none" font-family="Arial" font-size="13px" font-style="normal" font-weight="normal" text-decoration="undefined" x="437" y="75" text-anchor="start" dominant-baseline="text-before-edge" transform="matrix(1 0 0 1 -22 -22)">U</text></g></g><g><g><path fill="none" stroke="none"/><text fill="#000000" stroke="none" font-family="Arial" font-size="13px" font-style="normal" font-weight="normal" text-decoration="undefined" x="465.05908203125" y="75" text-anchor="start" dominant-baseline="text-before-edge" transform="matrix(1 0 0 1 -22 -22)">name</text></g></g><g><g><path fill="none" stroke="none"/><text fill="#000000" stroke="none" font-family="Arial" font-size="13px" font-style="normal" font-weight="normal" text-decoration="undefined" x="545.12451171875" y="75" text-anchor="start" dominant-baseline="text-before-edge" transform="matrix(1 0 0 1 -22 -22)">String</text></g></g><g><g><path fill="none" stroke="none"/><text fill="#000000" stroke="none" font-family="Arial" font-size="13px" font-style="normal" font-weight="normal" text-decoration="undefined" x="437" y="81.5" text-anchor="start" dominant-baseline="central" transform="matrix(1 0 0 1 -22 -22)"></text></g></g><g><g><path fill="none" stroke="none"/><text fill="#000000" stroke="none" font-family="Arial" font-size="13px" font-style="normal" font-weight="normal" text-decoration="undefined" x="437" y="90" text-anchor="start" dominant-baseline="text-before-edge" transform="matrix(1 0 0 1 -22 -22)"></text></g></g><g><g><path fill="none" stroke="none"/><text fill="#000000" stroke="none" font-family="Arial" font-size="13px" font-style="normal" font-weight="normal" text-decoration="undefined" x="465.05908203125" y="90" text-anchor="start" dominant-baseline="text-before-edge" transform="matrix(1 0 0 1 -22 -22)">description</text></g></g><g><g><path fill="none" stroke="none"/><text fill="#000000" stroke="none" font-family="Arial" font-size="13px" font-style="normal" font-weight="normal" text-decoration="undefined" x="545.12451171875" y="90" text-anchor="start" dominant-baseline="text-before-edge" transform="matrix(1 0 0 1 -22 -22)">String</text></g></g><g><g><path fill="none" stroke="none"/><text fill="#000000" stroke="none" font-family="Arial" font-size="13px" font-style="normal" font-weight="normal" text-decoration="undefined" x="437" y="96.5" text-anchor="start" dominant-baseline="central" transform="matrix(1 0 0 1 -22 -22)"></text></g></g><g><g><path fill="none" stroke="none"/><text fill="#000000" stroke="none" font-family="Arial" font-size="13px" font-style="normal" font-weight="normal" text-decoration="undefined" x="437" y="105" text-anchor="start" dominant-baseline="text-before-edge" transform="matrix(1 0 0 1 -22 -22)"></text></g></g><g><g><path fill="none" stroke="none"/><text fill="#000000" stroke="none" font-family="Arial" font-size="13px" font-style="normal" font-weight="normal" text-decoration="undefined" x="465.05908203125" y="105" text-anchor="start" dominant-baseline="text-before-edge" transform="matrix(1 0 0 1 -22 -22)">media</text></g></g><g><g><path fill="none" stroke="none"/><text fill="#000000" stroke="none" font-family="Arial" font-size="13px" font-style="normal" font-weight="normal" text-decoration="undefined" x="545.12451171875" y="105" text-anchor="start" dominant-baseline="text-before-edge" transform="matrix(1 0 0 1 -22 -22)">String</text></g></g><g><g><path fill="none" stroke="none"/><text fill="#000000" stroke="none" font-family="Arial" font-size="13px" font-style="normal" font-weight="normal" text-decoration="undefined" x="437" y="111.5" text-anchor="start" dominant-baseline="central" transform="matrix(1 0 0 1 -22 -22)"></text></g></g><g><g><path fill="none" stroke="none"/><text fill="#000000" stroke="none" font-family="Arial" font-size="13px" font-style="normal" font-weight="normal" text-decoration="undefined" x="437" y="120" text-anchor="start" dominant-baseline="text-before-edge" transform="matrix(1 0 0 1 -22 -22)"></text></g></g><g><g><path fill="none" stroke="none"/><text fill="#000000" stroke="none" font-family="Arial" font-size="13px" font-style="normal" font-weight="normal" text-decoration="undefined" x="465.05908203125" y="120" text-anchor="start" dominant-baseline="text-before-edge" transform="matrix(1 0 0 1 -22 -22)">targets</text></g></g><g><g><path fill="none" stroke="none"/><text fill="#000000" stroke="none" font-family="Arial" font-size="13px" font-style="normal" font-weight="normal" text-decoration="undefined" x="545.12451171875" y="120" text-anchor="start" dominant-baseline="text-before-edge" transform="matrix(1 0 0 1 -22 -22)">ExerciseTarget[](ABS, BICEPS, ...)</text></g></g><g><g><path fill="none" stroke="none"/><text fill="#000000" stroke="none" font-family="Arial" font-size="13px" font-style="normal" font-weight="normal" text-decoration="undefined" x="437" y="126.5" text-anchor="start" dominant-baseline="central" transform="matrix(1 0 0 1 -22 -22)"></text></g></g><g><path fill="none" stroke="#000000" paint-order="fill stroke markers" d=" M 119 116 L 119 283" stroke-miterlimit="10" stroke-dasharray=""/></g><g><path fill="none" stroke="#000000" paint-order="fill stroke markers" d=" M 119 269 L 112 283" stroke-miterlimit="10" stroke-dasharray=""/></g><g><path fill="none" stroke="#000000" paint-order="fill stroke markers" d=" M 119 269 L 126 283" stroke-miterlimit="10" stroke-dasharray=""/></g><g><path fill="#FFFFFF" stroke="none" paint-order="stroke fill markers" d=" M 112 261 C 112 257.1340064 115.1340064 254 119 254 C 122.8659936 254 126 257.1340064 126 261 C 126 264.8659936 122.8659936 268 119 268 C 115.1340064 268 112 264.8659936 112 261 Z"/></g><g><path fill="none" stroke="#000000" paint-order="fill stroke markers" d=" M 112 261 C 112 257.1340064 115.1340064 254 119 254 C 122.8659936 254 126 257.1340064 126 261 C 126 264.8659936 122.8659936 268 119 268 C 115.1340064 268 112 264.8659936 112 261 Z" stroke-miterlimit="10" stroke-dasharray=""/></g><g><path fill="none" stroke="#000000" paint-order="fill stroke markers" d=" M 126 123 L 112 123" stroke-miterlimit="10" stroke-dasharray=""/></g><g><path fill="none" stroke="#000000" paint-order="fill stroke markers" d=" M 126 130 L 112 130" stroke-miterlimit="10" stroke-dasharray=""/></g><g><rect fill="#ffffff" stroke="none" x="156" y="157" width="0" height="13" transform="matrix(1 0 0 1 -22 -22)"/></g><g><g><path fill="none" stroke="none"/><text fill="#000000" stroke="none" font-family="Arial" font-size="13px" font-style="normal" font-weight="normal" text-decoration="undefined" x="156" y="163.5" text-anchor="middle" dominant-baseline="central" transform="matrix(1 0 0 1 -22 -22)"></text></g></g><g><rect fill="#ffffff" stroke="none" x="156" y="273" width="0" height="13" transform="matrix(1 0 0 1 -22 -22)"/></g><g><g><path fill="none" stroke="none"/><text fill="#000000" stroke="none" font-family="Arial" font-size="13px" font-style="normal" font-weight="normal" text-decoration="undefined" x="156" y="279.5" text-anchor="middle" dominant-baseline="central" transform="matrix(1 0 0 1 -22 -22)"></text></g></g><g><rect fill="#91FFEC" stroke="none" x="288" y="191" width="149.18359375" height="61" transform="matrix(1 0 0 1 -22 -22)"/></g><g><path fill="none" stroke="#000000" paint-order="fill stroke markers" d=" M 266 169 L 415.18359375 169 L 415.18359375 230 L 266 230 L 266 169 Z Z" stroke-miterlimit="10" stroke-dasharray=""/></g><g><path fill="none" stroke="#000000" paint-order="fill stroke markers" d=" M 266 192 L 415.18359375 192" stroke-miterlimit="10" stroke-dasharray=""/></g><g><path fill="none" stroke="#000000" paint-order="fill stroke markers" d=" M 294.05908203125 192 L 294.05908203125 230" stroke-miterlimit="10" stroke-dasharray=""/></g><g><path fill="none" stroke="#000000" paint-order="fill stroke markers" d=" M 373.419921875 192 L 373.419921875 230" stroke-miterlimit="10" stroke-dasharray=""/></g><g><g><path fill="none" stroke="none"/><text fill="#000000" stroke="none" font-family="Arial" font-size="13px" font-style="normal" font-weight="bold" text-decoration="undefined" x="362.591796875" y="202.5" text-anchor="middle" dominant-baseline="central" transform="matrix(1 0 0 1 -22 -22)">UnlockedPreset</text></g></g><g><g><path fill="none" stroke="none"/><text fill="#000000" stroke="none" font-family="Arial" font-size="13px" font-style="normal" font-weight="normal" text-decoration="undefined" x="293" y="219" text-anchor="start" dominant-baseline="text-before-edge" transform="matrix(1 0 0 1 -22 -22)">PK</text></g></g><g><g><path fill="none" stroke="none"/><text fill="#000000" stroke="none" font-family="Arial" font-size="13px" font-style="normal" font-weight="normal" text-decoration="undefined" x="321.05908203125" y="219" text-anchor="start" dominant-baseline="text-before-edge" transform="matrix(1 0 0 1 -22 -22)">member_id</text></g></g><g><g><path fill="none" stroke="none"/><text fill="#000000" stroke="none" font-family="Arial" font-size="13px" font-style="normal" font-weight="normal" text-decoration="undefined" x="400.419921875" y="219" text-anchor="start" dominant-baseline="text-before-edge" transform="matrix(1 0 0 1 -22 -22)">Long</text></g></g><g><g><path fill="none" stroke="none"/><text fill="#000000" stroke="none" font-family="Arial" font-size="13px" font-style="normal" font-weight="normal" text-decoration="undefined" x="293" y="225.5" text-anchor="start" dominant-baseline="central" transform="matrix(1 0 0 1 -22 -22)"></text></g></g><g><g><path fill="none" stroke="none"/><text fill="#000000" stroke="none" font-family="Arial" font-size="13px" font-style="normal" font-weight="normal" text-decoration="undefined" x="293" y="234" text-anchor="start" dominant-baseline="text-before-edge" transform="matrix(1 0 0 1 -22 -22)">PK</text></g></g><g><g><path fill="none" stroke="none"/><text fill="#000000" stroke="none" font-family="Arial" font-size="13px" font-style="normal" font-weight="normal" text-decoration="undefined" x="321.05908203125" y="234" text-anchor="start" dominant-baseline="text-before-edge" transform="matrix(1 0 0 1 -22 -22)">preset_id</text></g></g><g><g><path fill="none" stroke="none"/><text fill="#000000" stroke="none" font-family="Arial" font-size="13px" font-style="normal" font-weight="normal" text-decoration="undefined" x="400.419921875" y="234" text-anchor="start" dominant-baseline="text-before-edge" transform="matrix(1 0 0 1 -22 -22)">Long</text></g></g><g><g><path fill="none" stroke="none"/><text fill="#000000" stroke="none" font-family="Arial" font-size="13px" font-style="normal" font-weight="normal" text-decoration="undefined" x="293" y="240.5" text-anchor="start" dominant-baseline="central" transform="matrix(1 0 0 1 -22 -22)"></text></g></g><g><path fill="none" stroke="#000000" paint-order="fill stroke markers" d=" M 307 283 L 324 283 L 324 283 A 8 8 0 0 0 332 275 L 332 230" stroke-miterlimit="10" stroke-dasharray=""/></g><g><path fill="none" stroke="#000000" paint-order="fill stroke markers" d=" M 332 244 L 339 230" stroke-miterlimit="10" stroke-dasharray=""/></g><g><path fill="none" stroke="#000000" paint-order="fill stroke markers" d=" M 332 244 L 325 230" stroke-miterlimit="10" stroke-dasharray=""/></g><g><path fill="#FFFFFF" stroke="none" paint-order="stroke fill markers" d=" M 325 252 C 325 248.13400639999998 328.1340064 245 332 245 C 335.8659936 245 339 248.13400639999998 339 252 C 339 255.86599360000002 335.8659936 259 332 259 C 328.1340064 259 325 255.86599360000002 325 252 Z"/></g><g><path fill="none" stroke="#000000" paint-order="fill stroke markers" d=" M 325 252 C 325 248.13400639999998 328.1340064 245 332 245 C 335.8659936 245 339 248.13400639999998 339 252 C 339 255.86599360000002 335.8659936 259 332 259 C 328.1340064 259 325 255.86599360000002 325 252 Z" stroke-miterlimit="10" stroke-dasharray=""/></g><g><path fill="none" stroke="#000000" paint-order="fill stroke markers" d=" M 314 276 L 314 290" stroke-miterlimit="10" stroke-dasharray=""/></g><g><path fill="none" stroke="#000000" paint-order="fill stroke markers" d=" M 321 276 L 321 290" stroke-miterlimit="10" stroke-dasharray=""/></g><g><rect fill="#ffffff" stroke="none" x="354" y="284" width="0" height="13" transform="matrix(1 0 0 1 -22 -22)"/></g><g><g><path fill="none" stroke="none"/><text fill="#000000" stroke="none" font-family="Arial" font-size="13px" font-style="normal" font-weight="normal" text-decoration="undefined" x="354" y="290.5" text-anchor="middle" dominant-baseline="central" transform="matrix(1 0 0 1 -22 -22)"></text></g></g><g><rect fill="#ffffff" stroke="none" x="339" y="271" width="0" height="13" transform="matrix(1 0 0 1 -22 -22)"/></g><g><g><path fill="none" stroke="none"/><text fill="#000000" stroke="none" font-family="Arial" font-size="13px" font-style="normal" font-weight="normal" text-decoration="undefined" x="339" y="277.5" text-anchor="middle" dominant-baseline="central" transform="matrix(1 0 0 1 -22 -22)"></text></g></g><g><path fill="none" stroke="#000000" paint-order="fill stroke markers" d=" M 331 116 L 331 169" stroke-miterlimit="10" stroke-dasharray=""/></g><g><path fill="none" stroke="#000000" paint-order="fill stroke markers" d=" M 331 155 L 324 169" stroke-miterlimit="10" stroke-dasharray=""/></g><g><path fill="none" stroke="#000000" paint-order="fill stroke markers" d=" M 331 155 L 338 169" stroke-miterlimit="10" stroke-dasharray=""/></g><g><path fill="#FFFFFF" stroke="none" paint-order="stroke fill markers" d=" M 324 147 C 324 143.1340064 327.1340064 140 331 140 C 334.8659936 140 338 143.1340064 338 147 C 338 150.8659936 334.8659936 154 331 154 C 327.1340064 154 324 150.8659936 324 147 Z"/></g><g><path fill="none" stroke="#000000" paint-order="fill stroke markers" d=" M 324 147 C 324 143.1340064 327.1340064 140 331 140 C 334.8659936 140 338 143.1340064 338 147 C 338 150.8659936 334.8659936 154 331 154 C 327.1340064 154 324 150.8659936 324 147 Z" stroke-miterlimit="10" stroke-dasharray=""/></g><g><path fill="none" stroke="#000000" paint-order="fill stroke markers" d=" M 338 123 L 324 123" stroke-miterlimit="10" stroke-dasharray=""/></g><g><path fill="none" stroke="#000000" paint-order="fill stroke markers" d=" M 338 130 L 324 130" stroke-miterlimit="10" stroke-dasharray=""/></g><g><rect fill="#ffffff" stroke="none" x="368" y="157" width="0" height="13" transform="matrix(1 0 0 1 -22 -22)"/></g><g><g><path fill="none" stroke="none"/><text fill="#000000" stroke="none" font-family="Arial" font-size="13px" font-style="normal" font-weight="normal" text-decoration="undefined" x="368" y="163.5" text-anchor="middle" dominant-baseline="central" transform="matrix(1 0 0 1 -22 -22)"></text></g></g><g><rect fill="#ffffff" stroke="none" x="368" y="159" width="0" height="13" transform="matrix(1 0 0 1 -22 -22)"/></g><g><g><path fill="none" stroke="none"/><text fill="#000000" stroke="none" font-family="Arial" font-size="13px" font-style="normal" font-weight="normal" text-decoration="undefined" x="368" y="165.5" text-anchor="middle" dominant-baseline="central" transform="matrix(1 0 0 1 -22 -22)"></text></g></g><g><rect fill="#ADC8FF" stroke="none" x="544" y="304" width="150.65625" height="76" transform="matrix(1 0 0 1 -22 -22)"/></g><g><path fill="none" stroke="#000000" paint-order="fill stroke markers" d=" M 522 282 L 672.65625 282 L 672.65625 358 L 522 358 L 522 282 Z Z" stroke-miterlimit="10" stroke-dasharray=""/></g><g><path fill="none" stroke="#000000" paint-order="fill stroke markers" d=" M 522 305 L 672.65625 305" stroke-miterlimit="10" stroke-dasharray=""/></g><g><path fill="none" stroke="#000000" paint-order="fill stroke markers" d=" M 550.05908203125 305 L 550.05908203125 358" stroke-miterlimit="10" stroke-dasharray=""/></g><g><path fill="none" stroke="#000000" paint-order="fill stroke markers" d=" M 630.892578125 305 L 630.892578125 358" stroke-miterlimit="10" stroke-dasharray=""/></g><g><g><path fill="none" stroke="none"/><text fill="#000000" stroke="none" font-family="Arial" font-size="13px" font-style="normal" font-weight="bold" text-decoration="undefined" x="619.328125" y="315.5" text-anchor="middle" dominant-baseline="central" transform="matrix(1 0 0 1 -22 -22)">PresetExercice</text></g></g><g><g><path fill="none" stroke="none"/><text fill="#000000" stroke="none" font-family="Arial" font-size="13px" font-style="normal" font-weight="normal" text-decoration="undefined" x="549" y="332" text-anchor="start" dominant-baseline="text-before-edge" transform="matrix(1 0 0 1 -22 -22)">PK</text></g></g><g><g><path fill="none" stroke="none"/><text fill="#000000" stroke="none" font-family="Arial" font-size="13px" font-style="normal" font-weight="normal" text-decoration="undefined" x="577.05908203125" y="332" text-anchor="start" dominant-baseline="text-before-edge" transform="matrix(1 0 0 1 -22 -22)">exercise_id</text></g></g><g><g><path fill="none" stroke="none"/><text fill="#000000" stroke="none" font-family="Arial" font-size="13px" font-style="normal" font-weight="normal" text-decoration="undefined" x="657.892578125" y="332" text-anchor="start" dominant-baseline="text-before-edge" transform="matrix(1 0 0 1 -22 -22)">Long</text></g></g><g><g><path fill="none" stroke="none"/><text fill="#000000" stroke="none" font-family="Arial" font-size="13px" font-style="normal" font-weight="normal" text-decoration="undefined" x="549" y="338.5" text-anchor="start" dominant-baseline="central" transform="matrix(1 0 0 1 -22 -22)"></text></g></g><g><g><path fill="none" stroke="none"/><text fill="#000000" stroke="none" font-family="Arial" font-size="13px" font-style="normal" font-weight="normal" text-decoration="undefined" x="549" y="347" text-anchor="start" dominant-baseline="text-before-edge" transform="matrix(1 0 0 1 -22 -22)">PK</text></g></g><g><g><path fill="none" stroke="none"/><text fill="#000000" stroke="none" font-family="Arial" font-size="13px" font-style="normal" font-weight="normal" text-decoration="undefined" x="577.05908203125" y="347" text-anchor="start" dominant-baseline="text-before-edge" transform="matrix(1 0 0 1 -22 -22)">preset_id</text></g></g><g><g><path fill="none" stroke="none"/><text fill="#000000" stroke="none" font-family="Arial" font-size="13px" font-style="normal" font-weight="normal" text-decoration="undefined" x="657.892578125" y="347" text-anchor="start" dominant-baseline="text-before-edge" transform="matrix(1 0 0 1 -22 -22)">Long</text></g></g><g><g><path fill="none" stroke="none"/><text fill="#000000" stroke="none" font-family="Arial" font-size="13px" font-style="normal" font-weight="normal" text-decoration="undefined" x="549" y="353.5" text-anchor="start" dominant-baseline="central" transform="matrix(1 0 0 1 -22 -22)"></text></g></g><g><g><path fill="none" stroke="none"/><text fill="#000000" stroke="none" font-family="Arial" font-size="13px" font-style="normal" font-weight="normal" text-decoration="undefined" x="549" y="362" text-anchor="start" dominant-baseline="text-before-edge" transform="matrix(1 0 0 1 -22 -22)"></text></g></g><g><g><path fill="none" stroke="none"/><text fill="#000000" stroke="none" font-family="Arial" font-size="13px" font-style="normal" font-weight="normal" text-decoration="undefined" x="577.05908203125" y="362" text-anchor="start" dominant-baseline="text-before-edge" transform="matrix(1 0 0 1 -22 -22)">position</text></g></g><g><g><path fill="none" stroke="none"/><text fill="#000000" stroke="none" font-family="Arial" font-size="13px" font-style="normal" font-weight="normal" text-decoration="undefined" x="657.892578125" y="362" text-anchor="start" dominant-baseline="text-before-edge" transform="matrix(1 0 0 1 -22 -22)">Int</text></g></g><g><g><path fill="none" stroke="none"/><text fill="#000000" stroke="none" font-family="Arial" font-size="13px" font-style="normal" font-weight="normal" text-decoration="undefined" x="549" y="368.5" text-anchor="start" dominant-baseline="central" transform="matrix(1 0 0 1 -22 -22)"></text></g></g><g><path fill="none" stroke="#000000" paint-order="fill stroke markers" d=" M 630 116 L 630 282" stroke-miterlimit="10" stroke-dasharray=""/></g><g><path fill="none" stroke="#000000" paint-order="fill stroke markers" d=" M 630 268 L 623 282" stroke-miterlimit="10" stroke-dasharray=""/></g><g><path fill="none" stroke="#000000" paint-order="fill stroke markers" d=" M 630 268 L 637 282" stroke-miterlimit="10" stroke-dasharray=""/></g><g><path fill="#FFFFFF" stroke="none" paint-order="stroke fill markers" d=" M 623 260 C 623 256.1340064 626.1340064 253 630 253 C 633.8659936 253 637 256.1340064 637 260 C 637 263.8659936 633.8659936 267 630 267 C 626.1340064 267 623 263.8659936 623 260 Z"/></g><g><path fill="none" stroke="#000000" paint-order="fill stroke markers" d=" M 623 260 C 623 256.1340064 626.1340064 253 630 253 C 633.8659936 253 637 256.1340064 637 260 C 637 263.8659936 633.8659936 267 630 267 C 626.1340064 267 623 263.8659936 623 260 Z" stroke-miterlimit="10" stroke-dasharray=""/></g><g><path fill="none" stroke="#000000" paint-order="fill stroke markers" d=" M 637 123 L 623 123" stroke-miterlimit="10" stroke-dasharray=""/></g><g><path fill="none" stroke="#000000" paint-order="fill stroke markers" d=" M 637 130 L 623 130" stroke-miterlimit="10" stroke-dasharray=""/></g><g><rect fill="#ffffff" stroke="none" x="667" y="157" width="0" height="13" transform="matrix(1 0 0 1 -22 -22)"/></g><g><g><path fill="none" stroke="none"/><text fill="#000000" stroke="none" font-family="Arial" font-size="13px" font-style="normal" font-weight="normal" text-decoration="undefined" x="667" y="163.5" text-anchor="middle" dominant-baseline="central" transform="matrix(1 0 0 1 -22 -22)"></text></g></g><g><rect fill="#ffffff" stroke="none" x="667" y="272" width="0" height="13" transform="matrix(1 0 0 1 -22 -22)"/></g><g><g><path fill="none" stroke="none"/><text fill="#000000" stroke="none" font-family="Arial" font-size="13px" font-style="normal" font-weight="normal" text-decoration="undefined" x="667" y="278.5" text-anchor="middle" dominant-baseline="central" transform="matrix(1 0 0 1 -22 -22)"></text></g></g><g><path fill="none" stroke="#000000" paint-order="fill stroke markers" d=" M 307 296 L 522 296" stroke-miterlimit="10" stroke-dasharray=""/></g><g><path fill="none" stroke="#000000" paint-order="fill stroke markers" d=" M 508 296 L 522 303" stroke-miterlimit="10" stroke-dasharray=""/></g><g><path fill="none" stroke="#000000" paint-order="fill stroke markers" d=" M 508 296 L 522 289" stroke-miterlimit="10" stroke-dasharray=""/></g><g><path fill="#FFFFFF" stroke="none" paint-order="stroke fill markers" d=" M 493 296 C 493 292.1340064 496.1340064 289 500 289 C 503.8659936 289 507 292.1340064 507 296 C 507 299.8659936 503.8659936 303 500 303 C 496.1340064 303 493 299.8659936 493 296 Z"/></g><g><path fill="none" stroke="#000000" paint-order="fill stroke markers" d=" M 493 296 C 493 292.1340064 496.1340064 289 500 289 C 503.8659936 289 507 292.1340064 507 296 C 507 299.8659936 503.8659936 303 500 303 C 496.1340064 303 493 299.8659936 493 296 Z" stroke-miterlimit="10" stroke-dasharray=""/></g><g><path fill="none" stroke="#000000" paint-order="fill stroke markers" d=" M 314 289 L 314 303" stroke-miterlimit="10" stroke-dasharray=""/></g><g><path fill="none" stroke="#000000" paint-order="fill stroke markers" d=" M 321 289 L 321 303" stroke-miterlimit="10" stroke-dasharray=""/></g><g><rect fill="#ffffff" stroke="none" x="354" y="297" width="0" height="13" transform="matrix(1 0 0 1 -22 -22)"/></g><g><g><path fill="none" stroke="none"/><text fill="#000000" stroke="none" font-family="Arial" font-size="13px" font-style="normal" font-weight="normal" text-decoration="undefined" x="354" y="303.5" text-anchor="middle" dominant-baseline="central" transform="matrix(1 0 0 1 -22 -22)"></text></g></g><g><rect fill="#ffffff" stroke="none" x="518" y="297" width="0" height="13" transform="matrix(1 0 0 1 -22 -22)"/></g><g><g><path fill="none" stroke="none"/><text fill="#000000" stroke="none" font-family="Arial" font-size="13px" font-style="normal" font-weight="normal" text-decoration="undefined" x="518" y="303.5" text-anchor="middle" dominant-baseline="central" transform="matrix(1 0 0 1 -22 -22)"></text></g></g></g></svg>